<?xml version="1.0" encoding="UTF-8" standalone="no"?>
<!-- Created with Inkscape (http://www.inkscape.org/) -->

<svg
   xmlns:dc="http://purl.org/dc/elements/1.1/"
   xmlns:cc="http://creativecommons.org/ns#"
   xmlns:rdf="http://www.w3.org/1999/02/22-rdf-syntax-ns#"
   xmlns:svg="http://www.w3.org/2000/svg"
   xmlns="http://www.w3.org/2000/svg"
   xmlns:sodipodi="http://sodipodi.sourceforge.net/DTD/sodipodi-0.dtd"
   xmlns:inkscape="http://www.inkscape.org/namespaces/inkscape"
   width="288.39844"
   height="123.42599"
   id="svg2"
   version="1.1"
   inkscape:version="0.48.4 r9939"
   sodipodi:docname="logo.svg">
  <defs
     id="defs4" />
  <sodipodi:namedview
     id="base"
     pagecolor="#ffffff"
     bordercolor="#666666"
     borderopacity="1.0"
     inkscape:pageopacity="0.0"
     inkscape:pageshadow="2"
     inkscape:zoom="0.53818683"
     inkscape:cx="179.9719"
     inkscape:cy="-276.79088"
     inkscape:document-units="px"
     inkscape:current-layer="layer1"
     showgrid="false"
     inkscape:window-width="1920"
     inkscape:window-height="1029"
     inkscape:window-x="0"
     inkscape:window-y="0"
     inkscape:window-maximized="1"
     fit-margin-top="0"
     fit-margin-left="0"
     fit-margin-right="0"
     fit-margin-bottom="0" />
  <metadata
     id="metadata7">
    <rdf:RDF>
      <cc:Work
         rdf:about="">
        <dc:format>image/svg+xml</dc:format>
        <dc:type
           rdf:resource="http://purl.org/dc/dcmitype/StillImage" />
        <dc:title />
      </cc:Work>
    </rdf:RDF>
  </metadata>
  <g
     inkscape:label="Layer 1"
     inkscape:groupmode="layer"
     id="layer1"
     transform="translate(-203.26376,-160.0826)">
    <g
       id="g4455"
       transform="translate(-335.53702,-552.92588)"
       style="fill:#33e699;fill-opacity:1;opacity:0.74">
      <g
         style="font-size:80px;font-style:normal;font-variant:normal;font-weight:normal;font-stretch:normal;text-align:justify;line-height:179.99999522999999613%;letter-spacing:0px;word-spacing:0px;writing-mode:lr-tb;text-anchor:start;fill:#33e699;fill-opacity:1;stroke:none;font-family:Arial Black;-inkscape-font-specification:'Arial Black, Normal'"
         id="text3333-4-5-8">
        <path
           d="m 538.80078,713.00848 33.125,0 c 5.52079,6e-5 9.75256,1.36725 12.69531,4.10157 2.9687,2.73442 4.45307,6.11984 4.45313,10.15625 -6e-5,3.38545 -1.05474,6.2891 -3.16406,8.71093 -1.40631,1.61462 -3.46359,2.89066 -6.17188,3.82813 4.11453,0.98961 7.13536,2.69534 9.0625,5.11719 1.95307,2.39585 2.92963,5.41668 2.92969,9.0625 -6e-5,2.96876 -0.69016,5.63803 -2.07031,8.00781 -1.38027,2.3698 -3.26829,4.24479 -5.66407,5.625 -1.48442,0.85938 -3.724,1.48438 -6.71875,1.875 -3.98441,0.52083 -6.62764,0.78125 -7.92968,0.78125 l -30.54688,0 0,-57.26563 m 17.85156,22.46094 7.69532,0 c 2.76038,4e-5 4.67444,-0.46871 5.74218,-1.40625 1.09372,-0.9635 1.64059,-2.34371 1.64063,-4.14062 -4e-5,-1.66663 -0.54691,-2.96871 -1.64063,-3.90625 -1.06774,-0.93746 -2.94274,-1.40621 -5.625,-1.40625 l -7.8125,0 0,10.85937 m 0,22.5 9.02344,0 c 3.04684,10e-6 5.19528,-0.53384 6.44531,-1.60156 1.24996,-1.09374 1.87496,-2.55207 1.875,-4.375 -4e-5,-1.69269 -0.62504,-3.04685 -1.875,-4.0625 -1.22399,-1.04164 -3.38545,-1.56248 -6.48437,-1.5625 l -8.98438,0 0,11.60156"
           id="path3065"
           inkscape:connector-curvature="0"
           style="fill:#33e699;fill-opacity:1" />
        <path
           d="m 634.85547,760.82098 -20.15625,0 -2.77344,9.45313 -18.08594,0 21.52344,-57.26563 19.29688,0 21.52343,57.26563 -18.51562,0 -2.8125,-9.45313 m -3.71094,-12.38281 -6.32812,-20.58594 -6.28907,20.58594 12.61719,0"
           id="path3067"
           inkscape:connector-curvature="0"
           style="fill:#33e699;fill-opacity:1" />
        <path
           d="m 661.92578,713.00848 33.125,0 c 5.52079,6e-5 9.75256,1.36725 12.69531,4.10157 2.9687,2.73442 4.45307,6.11984 4.45313,10.15625 -6e-5,3.38545 -1.05474,6.2891 -3.16406,8.71093 -1.40631,1.61462 -3.46359,2.89066 -6.17188,3.82813 4.11453,0.98961 7.13536,2.69534 9.0625,5.11719 1.95307,2.39585 2.92963,5.41668 2.92969,9.0625 -6e-5,2.96876 -0.69016,5.63803 -2.07031,8.00781 -1.38027,2.3698 -3.26829,4.24479 -5.66407,5.625 -1.48442,0.85938 -3.724,1.48438 -6.71875,1.875 -3.98441,0.52083 -6.62764,0.78125 -7.92968,0.78125 l -30.54688,0 0,-57.26563 m 17.85156,22.46094 7.69532,0 c 2.76038,4e-5 4.67444,-0.46871 5.74218,-1.40625 1.09372,-0.9635 1.64059,-2.34371 1.64063,-4.14062 -4e-5,-1.66663 -0.54691,-2.96871 -1.64063,-3.90625 -1.06774,-0.93746 -2.94274,-1.40621 -5.625,-1.40625 l -7.8125,0 0,10.85937 m 0,22.5 9.02344,0 c 3.04684,10e-6 5.19528,-0.53384 6.44531,-1.60156 1.24996,-1.09374 1.87496,-2.55207 1.875,-4.375 -4e-5,-1.69269 -0.62504,-3.04685 -1.875,-4.0625 -1.22399,-1.04164 -3.38545,-1.56248 -6.48437,-1.5625 l -8.98438,0 0,11.60156"
           id="path3069"
           inkscape:connector-curvature="0"
           style="fill:#33e699;fill-opacity:1" />
        <path
           d="m 724.03516,713.00848 47.42187,0 0,12.22657 -29.6875,0 0,9.10156 27.53906,0 0,11.67969 -27.53906,0 0,11.28906 30.54688,0 0,12.96875 -48.28125,0 0,-57.26563"
           id="path3071"
           inkscape:connector-curvature="0"
           style="fill:#33e699;fill-opacity:1" />
        <path
           d="m 781.88672,713.00848 17.69531,0 0,43.16407 27.61719,0 0,14.10156 -45.3125,0 0,-57.26563"
           id="path3073"
           inkscape:connector-curvature="0"
           style="fill:#33e699;fill-opacity:1" />
      </g>
      <path
         id="rect3554"
         transform="translate(0,484.3622)"
         d="m 538.80078,301.00977 0,51.0625 288.39844,0 0,-51.0625 -288.39844,0 z m 60.36914,12.98437 c 1.74317,0 3.30306,0.22787 4.68164,0.68359 1.38998,0.45573 2.57064,1.16211 3.53906,2.11915 0.96843,0.95703 1.70801,2.17089 2.22071,3.64062 0.51269,1.46973 0.76953,3.2181 0.76953,5.24609 0,2.028 -0.25684,3.78874 -0.76953,5.28125 -0.5127,1.48112 -1.25228,2.70541 -2.22071,3.67383 -0.96842,0.96843 -2.14908,1.69336 -3.53906,2.17188 -1.37858,0.46712 -2.93847,0.69922 -4.68164,0.69922 -1.74316,0 -3.30501,-0.2321 -4.68359,-0.69922 -1.37858,-0.47852 -2.55111,-1.20345 -3.51953,-2.17188 -0.96843,-0.96842 -1.70996,-2.19271 -2.22266,-3.67383 -0.51269,-1.49251 -0.76758,-3.25325 -0.76758,-5.28125 0,-2.02799 0.24447,-3.77636 0.73438,-5.24609 0.5013,-1.46973 1.22428,-2.68359 2.16992,-3.64062 0.94564,-0.95704 2.11393,-1.66342 3.50391,-2.11915 1.38997,-0.45572 2.98502,-0.68359 4.78515,-0.68359 z m 88.75196,0 c 0.78613,0 1.52766,0.029 2.22265,0.0859 0.69499,0.0456 1.35384,0.10775 1.98047,0.1875 0.63802,0.0797 1.24284,0.1709 1.8125,0.27344 0.56966,0.10253 1.12272,0.21224 1.6582,0.32617 l 0.10157,5.00586 -1.12696,0 -0.51367,-2.97266 c -0.79753,-0.48991 -1.72559,-0.86686 -2.78516,-1.12891 -1.04817,-0.27343 -2.11914,-0.41015 -3.21289,-0.41015 -1.333,0 -2.52408,0.18229 -3.57226,0.54687 -1.03679,0.36459 -1.91309,0.96322 -2.63086,1.79492 -0.71777,0.82032 -1.27083,1.90788 -1.6582,3.26368 -0.37598,1.3444 -0.56446,3.00358 -0.56446,4.97461 0,1.73177 0.18848,3.23991 0.56446,4.52734 0.37597,1.27604 0.91666,2.34277 1.62304,3.19727 0.70638,0.84309 1.56804,1.47493 2.58203,1.89648 1.02539,0.42155 2.18555,0.63281 3.48438,0.63281 0.70638,0 1.37956,-0.0456 2.01758,-0.13672 0.64941,-0.0911 1.24804,-0.21744 1.79492,-0.37695 0.55827,-0.1595 1.05338,-0.3418 1.48633,-0.54687 0.44433,-0.21648 0.8151,-0.43816 1.11133,-0.66602 l 0.63281,-3.41797 1.10937,0 -0.10156,5.38281 c -0.47852,0.13672 -1.02539,0.27344 -1.64062,0.41016 -0.61524,0.12533 -1.26986,0.23926 -1.96485,0.3418 -0.69499,0.10254 -1.42415,0.18327 -2.1875,0.24023 -0.76335,0.057 -1.52767,0.084 -2.29101,0.084 -1.86849,0 -3.53809,-0.26107 -5.00782,-0.78516 -1.45833,-0.52409 -2.69498,-1.28223 -3.70898,-2.27344 -1.00261,-0.99121 -1.76498,-2.19889 -2.28906,-3.62305 -0.52409,-1.43554 -0.78516,-3.05338 -0.78516,-4.85351 0,-2.05078 0.26107,-3.82813 0.78516,-5.33203 0.53548,-1.50391 1.30403,-2.74479 2.30664,-3.72461 1.01399,-0.99121 2.25683,-1.72656 3.72656,-2.20508 1.46973,-0.47851 3.14974,-0.71875 5.04102,-0.71875 z m 79.13085,0 c 1.12793,0 2.1989,0.0745 3.21289,0.22266 1.014,0.14811 1.94825,0.31998 2.80274,0.51367 l 0,4.76758 -1.11133,0 -0.59765,-2.80274 c -0.50131,-0.36458 -1.11654,-0.66699 -1.84571,-0.90625 -0.72916,-0.23926 -1.54948,-0.35937 -2.46094,-0.35937 -0.84309,0 -1.57226,0.0911 -2.1875,0.27343 -0.60384,0.1823 -1.10514,0.43295 -1.5039,0.75196 -0.39876,0.30762 -0.69499,0.67838 -0.88867,1.11133 -0.19369,0.42155 -0.29102,0.87727 -0.29102,1.36718 0,0.74056 0.17188,1.3558 0.51367,1.84571 0.35319,0.48991 0.80892,0.91243 1.36719,1.26562 0.56966,0.3418 1.21191,0.63802 1.92969,0.88867 0.72916,0.25065 1.4707,0.51172 2.22265,0.78516 0.76335,0.26204 1.50489,0.56445 2.22266,0.90625 0.72917,0.3304 1.37142,0.75716 1.92969,1.28125 0.56966,0.5127 1.02539,1.14453 1.36719,1.89648 0.35319,0.74056 0.53125,1.65821 0.53124,2.75196 0,1.05957 -0.16569,2.0166 -0.49609,2.87109 -0.31901,0.85449 -0.80989,1.58984 -1.4707,2.20508 -0.64942,0.60384 -1.46973,1.06999 -2.46094,1.40039 -0.97982,0.31901 -2.13574,0.47852 -3.46875,0.47852 -0.70638,0 -1.40039,-0.0332 -2.08398,-0.10157 -0.6836,-0.0684 -1.3278,-0.1595 -1.93164,-0.27343 -0.60385,-0.11394 -1.16309,-0.24447 -1.67579,-0.39258 -0.51269,-0.14811 -0.95605,-0.2972 -1.33203,-0.44531 l 0,-5.29688 1.11133,0 0.59766,3.0918 c 0.21647,0.27343 0.51888,0.53646 0.90625,0.78711 0.38737,0.23925 0.81413,0.45475 1.28125,0.64843 0.47851,0.1823 0.97982,0.33138 1.5039,0.44532 0.52409,0.10254 1.03581,0.15429 1.53711,0.15429 0.86589,0 1.61784,-0.11393 2.25586,-0.34179 0.63802,-0.23926 1.16211,-0.56446 1.57227,-0.97461 0.42155,-0.41016 0.73437,-0.89486 0.93945,-1.45313 0.20508,-0.55827 0.3086,-1.16732 0.3086,-1.82812 0,-0.82032 -0.17611,-1.49772 -0.5293,-2.03321 -0.3418,-0.53548 -0.79753,-0.98698 -1.36719,-1.35156 -0.55827,-0.37598 -1.19629,-0.6888 -1.91406,-0.93945 -0.71778,-0.26205 -1.45931,-0.52311 -2.22266,-0.78516 -0.75195,-0.26204 -1.4873,-0.55403 -2.20508,-0.87304 -0.71777,-0.31902 -1.36002,-0.72299 -1.92968,-1.2129 -0.55827,-0.4899 -1.014,-1.09277 -1.36719,-1.81054 -0.3418,-0.72917 -0.51367,-1.62403 -0.51367,-2.6836 0,-0.88867 0.17187,-1.69238 0.51367,-2.41015 0.3418,-0.72917 0.8431,-1.3444 1.5039,-1.84571 0.66081,-0.51269 1.46876,-0.90625 2.42579,-1.17968 0.96842,-0.27344 2.06836,-0.41016 3.29882,-0.41016 z m -41.46289,0.0684 3.24805,0 8.11719,21.73828 2.9043,0.46289 0,0.9043 -9.68946,0 0,-0.9043 3.07617,-0.46289 -2.27343,-6.61328 -9.02344,0 -2.30664,6.61328 3.07617,0.46289 0,0.9043 -7.53516,0 0,-0.9043 2.59766,-0.46289 7.80859,-21.73828 z m -174.97461,0.18945 8.64649,0 c 1.60644,0 2.94466,0.17611 4.01562,0.5293 1.08236,0.3418 1.94825,0.82031 2.59766,1.43555 0.64941,0.60384 1.11133,1.3164 1.38477,2.13672 0.27343,0.82031 0.41015,1.7028 0.41015,2.64843 0,0.93425 -0.13672,1.83334 -0.41015,2.69922 -0.26205,0.86589 -0.71159,1.63021 -1.34961,2.29102 -0.62663,0.6608 -1.46973,1.19108 -2.5293,1.58984 -1.05957,0.39876 -2.375,0.59766 -3.94727,0.59766 l -2.58203,0 0,7.62109 3.64063,0.46289 0,0.9043 -9.65625,0 0,-0.9043 2.71875,-0.46289 0,-20.19922 -2.93946,-0.44531 0,-0.9043 z m 80.97657,0 10.4082,0 c 1.90267,0 3.61589,0.1989 5.14258,0.59766 1.53808,0.39876 2.84928,1.0472 3.93164,1.94727 1.08236,0.90006 1.91308,2.06835 2.49414,3.5039 0.59245,1.43555 0.88867,3.19629 0.88867,5.28125 0,1.86849 -0.23828,3.52572 -0.7168,4.97266 -0.47851,1.44694 -1.20149,2.66699 -2.16992,3.6582 -0.96842,0.99121 -2.19466,1.74316 -3.67578,2.25586 -1.46973,0.5127 -3.2015,0.76758 -5.19531,0.76758 -0.64942,0 -1.36198,-0.004 -2.13672,-0.0156 -0.76335,0 -1.51335,-0.006 -2.25391,-0.0176 -0.74056,-0.0114 -1.44889,-0.0238 -2.12109,-0.0351 l -1.65625,0 -2.93945,0 0,-0.9043 2.93945,-0.46289 0,-20.19922 -2.93945,-0.44531 0,-0.9043 z m 163.62695,0 20.16602,0 0,5.38282 -1.16211,0 -0.46094,-3.57227 c -0.20508,-0.0456 -0.51172,-0.085 -0.92188,-0.11914 -0.39876,-0.0342 -0.86686,-0.0632 -1.40234,-0.0859 -0.53548,-0.0342 -1.12174,-0.057 -1.75977,-0.0684 -0.62662,-0.0228 -1.27083,-0.0332 -1.93164,-0.0332 l -0.83789,0 0,20.04492 3.64063,0.46289 0,0.9043 -10.57813,0 0,-0.9043 3.63868,-0.46289 0,-20.08008 -0.8711,0 c -1.49251,0 -2.74577,0.0352 -3.75976,0.10352 -1.014,0.0684 -1.7308,0.14713 -2.15235,0.23828 l -0.46289,3.57227 -1.14453,0 0,-5.38282 z m -196.04883,1.10938 c -1.48112,0 -2.71159,0.24023 -3.6914,0.71875 -0.97982,0.47851 -1.76075,1.16829 -2.3418,2.06836 -0.58106,0.88867 -0.99121,1.97005 -1.23047,3.24609 -0.23926,1.27604 -0.35937,2.7054 -0.35937,4.28906 0,1.59506 0.12011,3.03679 0.35937,4.32422 0.23926,1.28744 0.64941,2.38737 1.23047,3.29883 0.58105,0.91146 1.36198,1.61784 2.3418,2.11914 0.97981,0.48991 2.21028,0.73438 3.6914,0.73438 1.48112,0 2.71159,-0.24447 3.69141,-0.73438 0.97982,-0.5013 1.76074,-1.20768 2.34179,-2.11914 0.59245,-0.91146 1.00684,-2.01139 1.2461,-3.29883 0.23926,-1.28743 0.35937,-2.72916 0.35937,-4.32422 0,-1.58366 -0.12011,-3.01302 -0.35937,-4.28906 -0.23926,-1.27604 -0.65365,-2.35742 -1.2461,-3.24609 -0.58105,-0.90007 -1.36197,-1.58985 -2.34179,-2.06836 -0.97982,-0.47852 -2.21029,-0.71875 -3.69141,-0.71875 z m -42.31836,0.42773 0,10.85156 1.77735,0 c 1.07096,0 1.96582,-0.12434 2.68359,-0.375 0.72917,-0.26204 1.3112,-0.63281 1.74414,-1.11132 0.44434,-0.47852 0.75716,-1.06478 0.93945,-1.75977 0.1823,-0.69499 0.27344,-1.4821 0.27344,-2.35937 0,-0.91146 -0.10351,-1.69662 -0.30859,-2.35743 -0.19369,-0.6608 -0.51693,-1.20149 -0.97266,-1.62304 -0.44433,-0.43295 -1.03255,-0.75196 -1.76172,-0.95703 -0.72916,-0.20508 -1.62825,-0.3086 -2.69922,-0.3086 l -1.67578,0 z m 80.97656,0 0,19.77344 c 0.3418,0.0228 0.71257,0.0394 1.11133,0.0508 0.39877,0.0114 0.80892,0.028 1.23047,0.0508 l 1.26563,0.0352 1.26367,0 c 1.44694,0 2.68359,-0.21126 3.70898,-0.63281 1.03679,-0.43295 1.88607,-1.07097 2.54688,-1.91407 0.66081,-0.85449 1.14355,-1.91308 1.45117,-3.17773 0.31901,-1.26465 0.48047,-2.74154 0.48047,-4.42773 0,-1.6862 -0.23405,-3.13835 -0.70117,-4.35743 -0.46713,-1.23047 -1.1403,-2.24349 -2.01758,-3.04101 -0.86589,-0.79753 -1.91406,-1.38998 -3.14453,-1.77735 -1.23047,-0.38737 -2.60189,-0.58203 -4.11719,-0.58203 l -3.07813,0 z m 88.56641,0.73438 -3.93164,11.12695 7.98047,0 -4.04883,-11.12695 z"
         style="fill:#33e699;fill-opacity:1;stroke:none"
         inkscape:connector-curvature="0" />
    </g>
  </g>
</svg>
